<svg width="17" height="10" viewBox="0 0 17 10" fill="none" xmlns="http://www.w3.org/2000/svg">
<g clip-path="url(#clip0)">
<path fill-rule="evenodd" clip-rule="evenodd" d="M2.9662e-06 4.99999C2.9662e-06 4.85999 0.057003 4.73399 0.150003 4.64399L4.145 0.645991C4.23889 0.552104 4.36623 0.499359 4.499 0.499359C4.63178 0.499359 4.75912 0.552104 4.853 0.645991C4.94689 0.739877 4.99963 0.867215 4.99963 0.999991C4.99963 1.13277 4.94689 1.2601 4.853 1.35399L1.707 4.49999H16.5C16.6326 4.49999 16.7598 4.55267 16.8536 4.64644C16.9473 4.74021 17 4.86738 17 4.99999C17 5.1326 16.9473 5.25978 16.8536 5.35354C16.7598 5.44731 16.6326 5.49999 16.5 5.49999H1.707L4.854 8.64599C4.90049 8.69248 4.93737 8.74767 4.96253 8.80841C4.98769 8.86915 5.00063 8.93425 5.00063 8.99999C5.00063 9.06573 4.98769 9.13083 4.96253 9.19157C4.93737 9.25231 4.90049 9.3075 4.854 9.35399C4.80752 9.40048 4.75233 9.43735 4.69159 9.46251C4.63085 9.48767 4.56575 9.50062 4.5 9.50062C4.43426 9.50062 4.36916 9.48767 4.30842 9.46251C4.24768 9.43735 4.19249 9.40048 4.146 9.35399L0.146003 5.35399C0.0995122 5.30754 0.062676 5.25234 0.0376181 5.19158C0.0125602 5.13083 -0.000223857 5.06571 2.9662e-06 4.99999V4.99999Z" fill="white"/>
</g>
<defs>
<clipPath id="clip0">
<rect width="17" height="10" fill="white"/>
</clipPath>
</defs>
</svg>
